<?xml version="1.0" encoding="UTF-8"?><svg xmlns="http://www.w3.org/2000/svg" xmlns:xlink="http://www.w3.org/1999/xlink" height="666.3" preserveAspectRatio="xMidYMid meet" version="1.0" viewBox="29.5 33.9 556.3 666.3" width="556.3" zoomAndPan="magnify"><g><g id="change1_1"><path d="M 176.742188 291.445312 L 394.445312 397.257812 L 247.203125 700.195312 L 180.898438 556.863281 L 29.503906 594.382812 L 176.742188 291.445312" fill="#db2f14" fill-rule="evenodd"/></g><g id="change2_1"><path d="M 208.621094 309.917969 L 360.390625 380.765625 L 249.171875 613.492188 L 206.125 510.84375 L 94.6875 541.035156 L 208.621094 309.917969" fill="#ff430e" fill-rule="evenodd"/></g><g id="change1_2"><path d="M 437.46875 286.71875 L 220.152344 393.324219 L 368.5 695.722656 L 434.285156 552.148438 L 585.8125 589.113281 L 437.46875 286.71875" fill="#db2f14" fill-rule="evenodd"/></g><g id="change2_2"><path d="M 405.65625 305.308594 L 254.148438 376.707031 L 366.214844 609.027344 L 408.886719 506.222656 L 520.4375 536.007812 L 405.65625 305.308594" fill="#ff430e" fill-rule="evenodd"/></g><g id="change3_1"><path d="M 307.660156 33.914062 C 425.292969 33.914062 520.796875 129.421875 520.796875 247.054688 C 520.796875 364.691406 425.292969 460.195312 307.660156 460.195312 C 190.023438 460.195312 94.519531 364.691406 94.519531 247.054688 C 94.519531 129.421875 190.023438 33.914062 307.660156 33.914062" fill="#ffc50d" fill-rule="evenodd"/></g><g id="change4_1"><path d="M 307.660156 79.808594 C 398.386719 79.808594 472.042969 154.75 472.042969 247.054688 C 472.042969 339.363281 398.386719 414.304688 307.660156 414.304688 C 216.933594 414.304688 143.273438 339.363281 143.273438 247.054688 C 143.273438 154.75 216.933594 79.808594 307.660156 79.808594" fill="#f59f0a" fill-rule="evenodd"/></g><g id="change5_1"><path d="M 170.535156 150.34375 C 170.773438 149.628906 171.488281 149.140625 172.296875 149.140625 C 173.105469 149.140625 173.820312 149.628906 174.058594 150.34375 L 180.84375 170.617188 L 202.800781 176.878906 C 203.574219 177.101562 204.101562 177.761719 204.101562 178.507812 C 204.101562 179.253906 203.574219 179.914062 202.800781 180.132812 L 180.84375 186.398438 L 174.058594 206.671875 C 173.820312 207.386719 173.105469 207.871094 172.296875 207.871094 C 171.488281 207.871094 170.773438 207.386719 170.535156 206.671875 L 163.753906 186.398438 L 141.792969 180.132812 C 141.019531 179.914062 140.492188 179.253906 140.492188 178.507812 C 140.492188 177.761719 141.019531 177.101562 141.792969 176.878906 L 163.753906 170.617188 L 170.535156 150.34375" fill="#faf29f" fill-rule="evenodd"/></g><g id="change5_2"><path d="M 439.875 313.4375 C 440.117188 312.714844 440.839844 312.21875 441.660156 312.21875 C 442.484375 312.21875 443.207031 312.714844 443.449219 313.4375 L 450.335938 334.011719 L 472.617188 340.367188 C 473.402344 340.59375 473.9375 341.261719 473.9375 342.019531 C 473.9375 342.777344 473.402344 343.445312 472.617188 343.671875 L 450.335938 350.027344 L 443.449219 370.601562 C 443.207031 371.324219 442.484375 371.820312 441.660156 371.820312 C 440.839844 371.820312 440.117188 371.324219 439.875 370.601562 L 432.988281 350.027344 L 410.707031 343.671875 C 409.921875 343.445312 409.386719 342.777344 409.386719 342.019531 C 409.386719 341.261719 409.921875 340.59375 410.707031 340.367188 L 432.988281 334.011719 L 439.875 313.4375" fill="#faf29f" fill-rule="evenodd"/></g><g id="change5_3"><path d="M 138.710938 192.019531 C 138.871094 191.542969 139.351562 191.214844 139.894531 191.214844 C 140.4375 191.214844 140.914062 191.542969 141.074219 192.019531 L 145.628906 205.628906 L 160.363281 209.828125 C 160.882812 209.976562 161.234375 210.421875 161.234375 210.921875 C 161.234375 211.421875 160.882812 211.863281 160.363281 212.011719 L 145.628906 216.214844 L 141.074219 229.820312 C 140.914062 230.300781 140.4375 230.628906 139.894531 230.628906 C 139.351562 230.628906 138.871094 230.300781 138.710938 229.820312 L 134.160156 216.214844 L 119.425781 212.011719 C 118.90625 211.863281 118.550781 211.421875 118.550781 210.921875 C 118.550781 210.421875 118.90625 209.976562 119.425781 209.828125 L 134.160156 205.628906 L 138.710938 192.019531" fill="#faf29f" fill-rule="evenodd"/></g><g id="change5_4"><path d="M 471.6875 279.5625 C 471.859375 279.035156 472.386719 278.679688 472.980469 278.679688 C 473.578125 278.679688 474.101562 279.035156 474.277344 279.5625 L 479.269531 294.480469 L 495.429688 299.089844 C 495.996094 299.253906 496.386719 299.738281 496.386719 300.285156 C 496.386719 300.835938 495.996094 301.320312 495.429688 301.484375 L 479.269531 306.09375 L 474.277344 321.011719 C 474.101562 321.539062 473.578125 321.898438 472.980469 321.898438 C 472.386719 321.898438 471.859375 321.539062 471.6875 321.011719 L 466.695312 306.09375 L 450.535156 301.484375 C 449.96875 301.320312 449.578125 300.835938 449.578125 300.285156 C 449.578125 299.738281 449.96875 299.253906 450.535156 299.089844 L 466.695312 294.480469 L 471.6875 279.5625" fill="#faf29f" fill-rule="evenodd"/></g><g id="change5_5"><path d="M 292.558594 319.175781 C 292.558594 333.445312 304.378906 341.03125 316.757812 340.9375 C 329.101562 340.84375 340.835938 333.03125 340.835938 319.175781 L 340.835938 181.765625 C 340.835938 169.519531 336.417969 162.078125 330.816406 158.238281 C 324.839844 154.144531 316.785156 153.589844 308.332031 157.203125 C 308.351562 157.195312 274.082031 169.839844 274.082031 169.839844 C 264.328125 173.097656 259.308594 179.464844 257.453125 186.132812 C 253.015625 202.078125 267.65625 221.546875 288.253906 214.851562 C 288.421875 214.800781 288.585938 214.738281 288.75 214.675781 L 292.558594 213.148438 L 292.558594 319.175781" fill="#faf29f"/></g></g></svg>