<?xml version="1.0" encoding="UTF-8"?><svg xmlns="http://www.w3.org/2000/svg" xmlns:xlink="http://www.w3.org/1999/xlink" height="403.8" preserveAspectRatio="xMidYMid meet" version="1.0" viewBox="79.9 53.8 351.1 403.8" width="351.1" zoomAndPan="magnify"><g><g id="change1_1"><path d="M 142.773438 234.464844 C 153.488281 220.644531 163.253906 206.023438 170.949219 190.320312 C 185.097656 161.441406 192.289062 128.890625 211.332031 102.976562 C 230.996094 76.222656 262.765625 58.847656 295.867188 56.324219 C 328.972656 53.804688 362.855469 66.0625 386.960938 88.886719 C 415.664062 116.066406 429.582031 156.429688 430.167969 195.957031 C 430.921875 247.511719 410.726562 297.597656 382.269531 340.59375 C 349.492188 390.109375 303.214844 433.335938 246.085938 449.539062 C 225.382812 455.410156 203.515625 457.609375 182.183594 454.761719 C 160.855469 451.910156 140.078125 443.914062 123.050781 430.757812 C 107.425781 418.6875 95.105469 402.304688 88.199219 383.808594 C 81.292969 365.3125 79.871094 344.75 84.542969 325.566406 C 88.84375 307.902344 98.078125 291.800781 108.757812 277.089844 C 119.4375 262.375 131.632812 248.828125 142.773438 234.46875 L 142.773438 234.464844" fill="#d8ac55"/></g><g id="change2_1"><path d="M 373.445312 78.066406 C 389.90625 122.183594 393.507812 171.09375 382.867188 216.992188 C 374.804688 251.769531 358.585938 285.121094 333.523438 310.546875 C 308.457031 335.972656 274.175781 352.964844 238.492188 354.101562 C 204.8125 355.179688 170.925781 341.75 147.097656 317.925781 C 132.976562 303.800781 122.605469 286.101562 116.648438 267.046875 C 114.015625 270.390625 111.265625 273.644531 108.761719 277.09375 C 98.082031 291.804688 88.832031 307.894531 84.527344 325.558594 C 79.859375 344.738281 81.28125 365.316406 88.191406 383.8125 C 95.09375 402.304688 107.441406 418.671875 123.0625 430.742188 C 140.089844 443.902344 160.863281 451.898438 182.195312 454.75 C 203.527344 457.59375 225.394531 455.398438 246.097656 449.527344 C 303.226562 433.324219 349.496094 390.113281 382.269531 340.59375 C 410.730469 297.597656 430.925781 247.519531 430.167969 195.96875 C 429.589844 156.441406 415.65625 116.054688 386.953125 88.878906 C 382.757812 84.902344 378.179688 81.378906 373.445312 78.066406" fill="#d7a041"/></g><g id="change3_1"><path d="M 352.992188 222.730469 C 354.707031 221.367188 357.097656 220.90625 359.191406 221.546875 C 361.285156 222.179688 363.023438 223.890625 363.691406 225.96875 C 364.058594 227.105469 364.109375 228.332031 363.847656 229.5 C 363.589844 230.664062 363.03125 231.761719 362.226562 232.636719 C 361.421875 233.519531 360.378906 234.183594 359.242188 234.535156 C 358.109375 234.894531 356.882812 234.949219 355.714844 234.6875 C 354.46875 234.378906 353.3125 233.769531 352.414062 232.875 C 351.515625 231.980469 350.871094 230.820312 350.589844 229.578125 C 350.277344 228.332031 350.382812 227.015625 350.796875 225.816406 C 351.210938 224.617188 351.984375 223.535156 352.980469 222.742188 L 352.992188 222.730469" fill="#c58d23"/></g><g id="change4_1"><path d="M 128.542969 325.164062 C 129.367188 323.464844 130.6875 322.007812 132.308594 321.019531 C 133.921875 320.035156 135.824219 319.523438 137.714844 319.5625 C 139.609375 319.609375 141.480469 320.203125 143.054688 321.269531 C 144.621094 322.328125 145.875 323.847656 146.621094 325.589844 C 147.402344 327.425781 147.621094 329.507812 147.257812 331.460938 C 146.84375 333.421875 145.863281 335.246094 144.429688 336.640625 C 142.992188 338.03125 141.125 338.96875 139.160156 339.300781 C 137.191406 339.664062 135.125 339.347656 133.3125 338.503906 C 130.9375 337.390625 129.027344 335.296875 128.152344 332.824219 C 127.277344 330.34375 127.429688 327.519531 128.566406 325.160156 L 128.542969 325.164062" fill="#ad7c1e"/></g><g id="change3_2"><path d="M 309.820312 102.261719 C 311.460938 100.960938 313.746094 100.515625 315.746094 101.125 C 317.746094 101.730469 319.410156 103.363281 320.050781 105.355469 C 320.414062 106.445312 320.464844 107.617188 320.207031 108.730469 C 319.945312 109.84375 319.421875 110.894531 318.648438 111.726562 C 317.882812 112.574219 316.886719 113.207031 315.804688 113.542969 C 314.71875 113.90625 313.542969 113.957031 312.429688 113.699219 C 311.242188 113.4375 310.132812 112.820312 309.269531 111.960938 C 308.410156 111.105469 307.792969 109.996094 307.523438 108.808594 C 307.265625 107.621094 307.316406 106.363281 307.730469 105.210938 C 308.144531 104.058594 308.867188 103.027344 309.816406 102.269531 L 309.820312 102.261719" fill="#c58d23"/></g><g id="change3_3"><path d="M 221.132812 174.070312 C 223.421875 172.25 226.605469 171.636719 229.402344 172.484375 C 232.199219 173.328125 234.515625 175.609375 235.410156 178.386719 C 235.929688 179.898438 235.976562 181.542969 235.617188 183.097656 C 235.308594 184.65625 234.523438 186.113281 233.449219 187.28125 C 232.382812 188.460938 230.992188 189.34375 229.472656 189.8125 C 227.960938 190.332031 226.316406 190.363281 224.761719 190.019531 C 223.101562 189.65625 221.5625 188.796875 220.359375 187.601562 C 219.15625 186.402344 218.300781 184.863281 217.921875 183.203125 C 217.558594 181.542969 217.660156 179.785156 218.183594 178.183594 C 218.742188 176.582031 219.761719 175.140625 221.089844 174.082031 L 221.132812 174.070312" fill="#c58d23"/></g><g id="change4_2"><path d="M 218.378906 403.0625 C 220.839844 401.105469 224.265625 400.445312 227.273438 401.355469 C 230.28125 402.261719 232.769531 404.714844 233.730469 407.699219 C 234.261719 409.328125 234.339844 411.097656 233.992188 412.765625 C 233.628906 414.4375 232.816406 416.007812 231.660156 417.265625 C 230.507812 418.53125 229.015625 419.480469 227.386719 419.988281 C 225.757812 420.523438 223.988281 420.582031 222.320312 420.246094 C 220.535156 419.832031 218.878906 418.933594 217.585938 417.644531 C 216.292969 416.359375 215.371094 414.699219 214.964844 412.914062 C 214.546875 411.132812 214.652344 409.246094 215.273438 407.519531 C 215.875 405.792969 216.976562 404.25 218.398438 403.105469 L 218.378906 403.0625" fill="#ad7c1e"/></g><g id="change4_3"><path d="M 330.253906 331.019531 C 332.078125 329.566406 334.628906 329.074219 336.867188 329.746094 C 339.101562 330.421875 340.953125 332.246094 341.671875 334.46875 C 342.085938 335.679688 342.136719 336.992188 341.824219 338.238281 C 341.566406 339.480469 340.949219 340.648438 340.085938 341.582031 C 339.230469 342.519531 338.121094 343.230469 336.910156 343.601562 C 335.695312 344.019531 334.382812 344.019531 333.140625 343.761719 C 331.8125 343.445312 330.578125 342.777344 329.617188 341.820312 C 328.660156 340.859375 327.976562 339.632812 327.667969 338.304688 C 327.355469 336.976562 327.460938 335.570312 327.878906 334.289062 C 328.34375 333.011719 329.144531 331.859375 330.203125 331.011719 L 330.253906 331.019531" fill="#ad7c1e"/></g><g id="change3_4"><path d="M 240.933594 288.203125 C 242.359375 287.066406 244.351562 286.683594 246.101562 287.210938 C 247.84375 287.742188 249.289062 289.160156 249.847656 290.894531 C 250.160156 291.839844 250.210938 292.863281 250.003906 293.835938 C 249.796875 294.804688 249.320312 295.714844 248.648438 296.445312 C 247.980469 297.179688 247.113281 297.734375 246.171875 298.027344 C 245.226562 298.339844 244.199219 298.394531 243.230469 298.183594 C 242.195312 297.925781 241.234375 297.421875 240.480469 296.675781 C 239.730469 295.929688 239.195312 294.964844 238.964844 293.929688 C 238.707031 292.890625 238.808594 291.796875 239.121094 290.792969 C 239.480469 289.792969 240.105469 288.894531 240.933594 288.234375 L 240.933594 288.203125" fill="#c58d23"/></g><g id="change5_1"><path d="M 228.414062 107.785156 C 235.59375 98.597656 244.453125 90.726562 254.421875 84.675781 C 264.402344 78.625 275.507812 74.394531 287.03125 72.53125 C 290.761719 71.929688 294.578125 71.554688 298.316406 72.171875 C 302.054688 72.746094 305.726562 74.328125 308.285156 77.109375 C 310.457031 79.476562 311.710938 82.609375 312.035156 85.804688 C 312.351562 89 311.777344 92.25 310.621094 95.246094 C 308.304688 101.230469 303.78125 106.074219 299.175781 110.550781 C 291.894531 117.632812 284.128906 124.191406 276.832031 131.257812 C 271.726562 136.199219 266.839844 141.394531 261.300781 145.847656 C 255.761719 150.300781 249.464844 154.027344 242.519531 155.519531 C 238.660156 156.359375 234.605469 156.464844 230.777344 155.484375 C 226.953125 154.507812 223.367188 152.394531 220.933594 149.28125 C 218.613281 146.308594 217.429688 142.550781 217.164062 138.785156 C 216.90625 135.019531 217.527344 131.242188 218.503906 127.597656 C 220.4375 120.425781 223.832031 113.652344 228.414062 107.804688 L 228.414062 107.785156" fill="#e7cb94"/></g></g></svg>